G75*
%MOIN*%
%OFA0B0*%
%FSLAX24Y24*%
%IPPOS*%
%LPD*%
%AMOC8*
5,1,8,0,0,1.08239X$1,22.5*
%
%ADD10C,0.0000*%
D10*
X003644Y000150D02*
X003644Y039150D01*
X042644Y039150D01*
X042644Y000150D01*
X003644Y000150D01*
X004884Y011424D02*
X004886Y011460D01*
X004892Y011496D01*
X004902Y011531D01*
X004915Y011565D01*
X004932Y011597D01*
X004952Y011627D01*
X004976Y011654D01*
X005002Y011679D01*
X005031Y011701D01*
X005062Y011720D01*
X005095Y011735D01*
X005129Y011747D01*
X005165Y011755D01*
X005201Y011759D01*
X005237Y011759D01*
X005273Y011755D01*
X005309Y011747D01*
X005343Y011735D01*
X005376Y011720D01*
X005407Y011701D01*
X005436Y011679D01*
X005462Y011654D01*
X005486Y011627D01*
X005506Y011597D01*
X005523Y011565D01*
X005536Y011531D01*
X005546Y011496D01*
X005552Y011460D01*
X005554Y011424D01*
X005552Y011388D01*
X005546Y011352D01*
X005536Y011317D01*
X005523Y011283D01*
X005506Y011251D01*
X005486Y011221D01*
X005462Y011194D01*
X005436Y011169D01*
X005407Y011147D01*
X005376Y011128D01*
X005343Y011113D01*
X005309Y011101D01*
X005273Y011093D01*
X005237Y011089D01*
X005201Y011089D01*
X005165Y011093D01*
X005129Y011101D01*
X005095Y011113D01*
X005062Y011128D01*
X005031Y011147D01*
X005002Y011169D01*
X004976Y011194D01*
X004952Y011221D01*
X004932Y011251D01*
X004915Y011283D01*
X004902Y011317D01*
X004892Y011352D01*
X004886Y011388D01*
X004884Y011424D01*
X007384Y012900D02*
X007386Y012939D01*
X007392Y012978D01*
X007402Y013016D01*
X007415Y013053D01*
X007432Y013088D01*
X007452Y013122D01*
X007476Y013153D01*
X007503Y013182D01*
X007532Y013208D01*
X007564Y013231D01*
X007598Y013251D01*
X007634Y013267D01*
X007671Y013279D01*
X007710Y013288D01*
X007749Y013293D01*
X007788Y013294D01*
X007827Y013291D01*
X007866Y013284D01*
X007903Y013273D01*
X007940Y013259D01*
X007975Y013241D01*
X008008Y013220D01*
X008039Y013195D01*
X008067Y013168D01*
X008092Y013138D01*
X008114Y013105D01*
X008133Y013071D01*
X008148Y013035D01*
X008160Y012997D01*
X008168Y012959D01*
X008172Y012920D01*
X008172Y012880D01*
X008168Y012841D01*
X008160Y012803D01*
X008148Y012765D01*
X008133Y012729D01*
X008114Y012695D01*
X008092Y012662D01*
X008067Y012632D01*
X008039Y012605D01*
X008008Y012580D01*
X007975Y012559D01*
X007940Y012541D01*
X007903Y012527D01*
X007866Y012516D01*
X007827Y012509D01*
X007788Y012506D01*
X007749Y012507D01*
X007710Y012512D01*
X007671Y012521D01*
X007634Y012533D01*
X007598Y012549D01*
X007564Y012569D01*
X007532Y012592D01*
X007503Y012618D01*
X007476Y012647D01*
X007452Y012678D01*
X007432Y012712D01*
X007415Y012747D01*
X007402Y012784D01*
X007392Y012822D01*
X007386Y012861D01*
X007384Y012900D01*
X004884Y014376D02*
X004886Y014412D01*
X004892Y014448D01*
X004902Y014483D01*
X004915Y014517D01*
X004932Y014549D01*
X004952Y014579D01*
X004976Y014606D01*
X005002Y014631D01*
X005031Y014653D01*
X005062Y014672D01*
X005095Y014687D01*
X005129Y014699D01*
X005165Y014707D01*
X005201Y014711D01*
X005237Y014711D01*
X005273Y014707D01*
X005309Y014699D01*
X005343Y014687D01*
X005376Y014672D01*
X005407Y014653D01*
X005436Y014631D01*
X005462Y014606D01*
X005486Y014579D01*
X005506Y014549D01*
X005523Y014517D01*
X005536Y014483D01*
X005546Y014448D01*
X005552Y014412D01*
X005554Y014376D01*
X005552Y014340D01*
X005546Y014304D01*
X005536Y014269D01*
X005523Y014235D01*
X005506Y014203D01*
X005486Y014173D01*
X005462Y014146D01*
X005436Y014121D01*
X005407Y014099D01*
X005376Y014080D01*
X005343Y014065D01*
X005309Y014053D01*
X005273Y014045D01*
X005237Y014041D01*
X005201Y014041D01*
X005165Y014045D01*
X005129Y014053D01*
X005095Y014065D01*
X005062Y014080D01*
X005031Y014099D01*
X005002Y014121D01*
X004976Y014146D01*
X004952Y014173D01*
X004932Y014203D01*
X004915Y014235D01*
X004902Y014269D01*
X004892Y014304D01*
X004886Y014340D01*
X004884Y014376D01*
X004884Y019549D02*
X004886Y019585D01*
X004892Y019621D01*
X004902Y019656D01*
X004915Y019690D01*
X004932Y019722D01*
X004952Y019752D01*
X004976Y019779D01*
X005002Y019804D01*
X005031Y019826D01*
X005062Y019845D01*
X005095Y019860D01*
X005129Y019872D01*
X005165Y019880D01*
X005201Y019884D01*
X005237Y019884D01*
X005273Y019880D01*
X005309Y019872D01*
X005343Y019860D01*
X005376Y019845D01*
X005407Y019826D01*
X005436Y019804D01*
X005462Y019779D01*
X005486Y019752D01*
X005506Y019722D01*
X005523Y019690D01*
X005536Y019656D01*
X005546Y019621D01*
X005552Y019585D01*
X005554Y019549D01*
X005552Y019513D01*
X005546Y019477D01*
X005536Y019442D01*
X005523Y019408D01*
X005506Y019376D01*
X005486Y019346D01*
X005462Y019319D01*
X005436Y019294D01*
X005407Y019272D01*
X005376Y019253D01*
X005343Y019238D01*
X005309Y019226D01*
X005273Y019218D01*
X005237Y019214D01*
X005201Y019214D01*
X005165Y019218D01*
X005129Y019226D01*
X005095Y019238D01*
X005062Y019253D01*
X005031Y019272D01*
X005002Y019294D01*
X004976Y019319D01*
X004952Y019346D01*
X004932Y019376D01*
X004915Y019408D01*
X004902Y019442D01*
X004892Y019477D01*
X004886Y019513D01*
X004884Y019549D01*
X007384Y021025D02*
X007386Y021064D01*
X007392Y021103D01*
X007402Y021141D01*
X007415Y021178D01*
X007432Y021213D01*
X007452Y021247D01*
X007476Y021278D01*
X007503Y021307D01*
X007532Y021333D01*
X007564Y021356D01*
X007598Y021376D01*
X007634Y021392D01*
X007671Y021404D01*
X007710Y021413D01*
X007749Y021418D01*
X007788Y021419D01*
X007827Y021416D01*
X007866Y021409D01*
X007903Y021398D01*
X007940Y021384D01*
X007975Y021366D01*
X008008Y021345D01*
X008039Y021320D01*
X008067Y021293D01*
X008092Y021263D01*
X008114Y021230D01*
X008133Y021196D01*
X008148Y021160D01*
X008160Y021122D01*
X008168Y021084D01*
X008172Y021045D01*
X008172Y021005D01*
X008168Y020966D01*
X008160Y020928D01*
X008148Y020890D01*
X008133Y020854D01*
X008114Y020820D01*
X008092Y020787D01*
X008067Y020757D01*
X008039Y020730D01*
X008008Y020705D01*
X007975Y020684D01*
X007940Y020666D01*
X007903Y020652D01*
X007866Y020641D01*
X007827Y020634D01*
X007788Y020631D01*
X007749Y020632D01*
X007710Y020637D01*
X007671Y020646D01*
X007634Y020658D01*
X007598Y020674D01*
X007564Y020694D01*
X007532Y020717D01*
X007503Y020743D01*
X007476Y020772D01*
X007452Y020803D01*
X007432Y020837D01*
X007415Y020872D01*
X007402Y020909D01*
X007392Y020947D01*
X007386Y020986D01*
X007384Y021025D01*
X004884Y022501D02*
X004886Y022537D01*
X004892Y022573D01*
X004902Y022608D01*
X004915Y022642D01*
X004932Y022674D01*
X004952Y022704D01*
X004976Y022731D01*
X005002Y022756D01*
X005031Y022778D01*
X005062Y022797D01*
X005095Y022812D01*
X005129Y022824D01*
X005165Y022832D01*
X005201Y022836D01*
X005237Y022836D01*
X005273Y022832D01*
X005309Y022824D01*
X005343Y022812D01*
X005376Y022797D01*
X005407Y022778D01*
X005436Y022756D01*
X005462Y022731D01*
X005486Y022704D01*
X005506Y022674D01*
X005523Y022642D01*
X005536Y022608D01*
X005546Y022573D01*
X005552Y022537D01*
X005554Y022501D01*
X005552Y022465D01*
X005546Y022429D01*
X005536Y022394D01*
X005523Y022360D01*
X005506Y022328D01*
X005486Y022298D01*
X005462Y022271D01*
X005436Y022246D01*
X005407Y022224D01*
X005376Y022205D01*
X005343Y022190D01*
X005309Y022178D01*
X005273Y022170D01*
X005237Y022166D01*
X005201Y022166D01*
X005165Y022170D01*
X005129Y022178D01*
X005095Y022190D01*
X005062Y022205D01*
X005031Y022224D01*
X005002Y022246D01*
X004976Y022271D01*
X004952Y022298D01*
X004932Y022328D01*
X004915Y022360D01*
X004902Y022394D01*
X004892Y022429D01*
X004886Y022465D01*
X004884Y022501D01*
X022517Y001900D02*
X022519Y001957D01*
X022525Y002014D01*
X022535Y002070D01*
X022548Y002126D01*
X022566Y002180D01*
X022587Y002233D01*
X022612Y002284D01*
X022640Y002334D01*
X022672Y002381D01*
X022706Y002427D01*
X022744Y002469D01*
X022785Y002509D01*
X022828Y002547D01*
X022874Y002581D01*
X022922Y002611D01*
X022972Y002639D01*
X023024Y002663D01*
X023078Y002683D01*
X023132Y002699D01*
X023188Y002712D01*
X023244Y002721D01*
X023301Y002726D01*
X023358Y002727D01*
X023415Y002724D01*
X023472Y002717D01*
X023528Y002706D01*
X023583Y002692D01*
X023637Y002673D01*
X023690Y002651D01*
X023741Y002626D01*
X023790Y002596D01*
X023837Y002564D01*
X023882Y002528D01*
X023924Y002490D01*
X023963Y002448D01*
X023999Y002404D01*
X024033Y002358D01*
X024063Y002309D01*
X024089Y002259D01*
X024112Y002207D01*
X024131Y002153D01*
X024147Y002098D01*
X024159Y002042D01*
X024167Y001985D01*
X024171Y001929D01*
X024171Y001871D01*
X024167Y001815D01*
X024159Y001758D01*
X024147Y001702D01*
X024131Y001647D01*
X024112Y001593D01*
X024089Y001541D01*
X024063Y001491D01*
X024033Y001442D01*
X023999Y001396D01*
X023963Y001352D01*
X023924Y001310D01*
X023882Y001272D01*
X023837Y001236D01*
X023790Y001204D01*
X023741Y001174D01*
X023690Y001149D01*
X023637Y001127D01*
X023583Y001108D01*
X023528Y001094D01*
X023472Y001083D01*
X023415Y001076D01*
X023358Y001073D01*
X023301Y001074D01*
X023244Y001079D01*
X023188Y001088D01*
X023132Y001101D01*
X023078Y001117D01*
X023024Y001137D01*
X022972Y001161D01*
X022922Y001189D01*
X022874Y001219D01*
X022828Y001253D01*
X022785Y001291D01*
X022744Y001331D01*
X022706Y001373D01*
X022672Y001419D01*
X022640Y001466D01*
X022612Y001516D01*
X022587Y001567D01*
X022566Y001620D01*
X022548Y001674D01*
X022535Y001730D01*
X022525Y001786D01*
X022519Y001843D01*
X022517Y001900D01*
M02*
