%
M48
M72
T01C0.0130
T02C0.0197
T03C0.0236
T04C0.0240
T05C0.0315
T06C0.0320
T07C0.0394
T08C0.0400
T09C0.0433
T10C0.0630
T11C0.0669
T12C0.0787
T13C0.1181
T14C0.1654
%
T01
X16644Y23275
X18644Y23275
X24769Y25025
X30144Y11525
X30644Y11150
X33144Y4150
X40894Y8150
T02
X6144Y3400
X6144Y4900
X6144Y6400
X7894Y6400
X9394Y6400
X9394Y4900
X7894Y4900
X7894Y3400
X9394Y3400
X9394Y1900
X7894Y1900
X11144Y1900
X11144Y3400
X11144Y4900
X12894Y3400
X14644Y4400
X12894Y6400
X13894Y8400
X14894Y8400
X14394Y10150
X17394Y10400
X17394Y9400
X17394Y11650
X18394Y11650
X19394Y11650
X20394Y11650
X21394Y11650
X23019Y11400
X22394Y9150
X23144Y7650
X24879Y4560
X25394Y3400
X26269Y2150
X24894Y1900
X21394Y525
X20144Y1400
X16894Y2150
X16894Y3650
X15394Y2150
X19394Y5400
X20394Y5400
X19394Y6400
X25394Y11400
X26144Y10650
X26144Y9713
X26894Y11400
X28144Y11400
X29644Y10650
X29644Y9650
X30644Y8775
X31519Y8775
X32144Y8900
X32644Y8400
X31644Y10150
X32394Y11150
X32644Y12150
X31394Y12150
X32394Y13650
X32394Y14650
X32394Y15900
X34144Y15900
X34394Y17150
X32644Y18650
X32894Y19650
X33644Y19650
X34144Y20150
X34644Y19650
X34644Y20650
X33519Y21400
X32269Y20775
X32144Y19650
X31394Y19650
X30644Y19650
X30394Y17650
X28144Y16650
X27644Y16650
X25894Y15150
X25644Y17400
X25144Y19150
X25144Y19900
X24394Y19900
X24019Y21150
X25144Y21400
X24894Y23150
X25644Y23150
X26394Y23150
X27144Y23150
X27894Y23150
X28644Y23150
X29394Y23150
X30144Y23150
X30894Y23150
X32644Y24150
X33644Y24650
X34894Y24650
X34894Y23400
X33644Y23150
X36644Y22900
X37894Y23150
X37894Y23900
X38644Y23900
X39394Y23900
X39144Y24650
X38394Y24900
X41394Y27650
X41394Y29150
X41394Y30650
X41394Y32150
X41394Y33650
X41394Y34900
X41394Y36150
X41894Y36900
X40894Y37150
X39394Y37150
X37894Y37150
X36894Y37150
X35644Y37150
X35144Y36900
X35644Y37900
X35644Y38650
X31144Y36900
X30644Y37150
X30394Y36650
X29644Y36650
X28894Y36650
X28144Y36650
X26894Y36900
X25394Y36900
X23894Y37150
X22644Y37150
X22144Y36900
X22644Y37900
X22644Y38650
X18144Y36900
X17644Y37150
X17394Y36650
X16644Y36650
X15894Y36650
X15144Y36650
X14644Y37150
X13394Y37150
X12144Y37150
X10894Y37150
X9644Y37150
X9144Y36900
X9644Y37900
X9644Y38650
X5144Y36900
X4644Y37150
X4644Y37900
X4644Y38650
X4644Y35900
X4644Y34650
X4644Y33150
X4644Y31650
X4644Y30150
X4644Y28400
X4644Y26900
X4644Y25400
X5804Y24840
X7144Y24650
X8144Y24650
X8644Y24900
X9394Y24900
X7894Y23650
X9144Y23400
X10144Y22900
X10894Y22900
X11894Y22650
X12644Y21400
X13644Y21400
X13894Y18900
X13894Y17650
X15644Y18900
X17394Y19650
X18769Y19650
X18894Y21150
X19644Y21150
X21894Y23150
X22644Y23150
X23394Y23150
X24144Y22900
X24144Y24588
X25644Y24900
X26144Y24650
X27894Y25400
X28144Y26650
X29394Y25400
X30144Y25400
X30894Y25400
X30894Y26650
X31144Y28150
X31144Y29650
X31144Y31400
X31144Y32900
X31144Y33900
X31144Y34900
X28144Y34900
X28144Y33650
X28144Y32400
X28144Y31150
X28144Y29900
X28144Y28650
X21144Y24650
X20144Y24650
X19644Y23650
X20894Y23650
X18394Y25400
X17644Y25400
X16894Y25400
X16144Y25400
X15394Y25400
X14644Y24400
X13144Y24650
X16894Y24400
X16894Y23650
X18144Y23650
X22269Y20025
X22269Y19275
X22394Y18650
X23644Y18650
X22394Y17400
X22394Y15900
X19644Y15650
X19644Y14650
X18769Y14150
X17644Y13650
X16894Y13400
X15894Y13400
X15644Y15400
X14644Y15150
X15894Y16650
X16394Y16150
X17144Y16650
X19144Y17400
X19644Y17900
X27269Y20775
X27394Y21400
X28144Y19150
X30475Y14650
X30519Y14025
X27644Y13150
X28144Y9650
X28394Y6150
X29644Y6150
X29644Y4900
X28394Y4900
X27144Y4900
X27144Y6150
X31144Y5650
X31144Y4900
X32894Y4900
X32894Y6150
X34394Y6150
X35644Y6150
X36894Y6150
X36894Y4900
X37644Y4400
X38394Y4900
X39644Y4900
X40644Y4900
X40644Y3650
X40644Y3150
X41269Y2775
X41644Y2150
X38644Y2150
X37144Y3650
X36644Y2150
X35644Y4900
X34394Y4900
X33644Y3025
X32894Y2150
X32644Y3400
X31144Y2150
X29644Y2150
X28394Y2150
X34644Y9150
X38394Y6150
X39644Y6150
X40644Y6150
X41644Y6150
X41769Y10400
X41769Y11400
X41769Y12400
X40644Y12400
X41769Y13400
X39144Y13400
X39144Y12400
X39144Y11400
X39144Y10400
X35144Y14150
X36894Y16400
X38144Y17900
X38144Y19150
X38144Y20150
X37144Y20650
X38144Y21650
X36894Y19150
X41769Y20150
X41769Y16650
X30644Y37900
X30644Y38650
X18394Y28650
X17644Y28650
X16894Y28650
X16144Y28650
X15394Y28650
X16644Y29650
X16874Y31770
X17644Y33650
X18144Y34150
X17644Y34650
X17144Y34150
X17894Y35650
X17644Y37900
X17644Y38650
X15144Y34400
X15144Y33650
X4644Y23650
X7644Y20150
X7644Y17650
X9144Y17650
X10894Y17650
X10894Y16400
X10894Y15150
X7644Y15150
X7644Y13900
X4394Y9900
X6144Y9900
X6144Y8150
X7894Y8150
X8644Y8650
X8644Y9400
X10894Y11650
X6144Y16150
X6144Y17900
X4394Y17900
X4394Y16150
X4394Y8150
X4394Y6400
T03
X5144Y27650
X11144Y23650
X10144Y20650
X22144Y24150
X35644Y23150
T04
X39644Y14650
X40644Y14650
X41644Y14650
X41644Y18150
X40644Y18150
X39644Y18150
X39644Y21650
X40644Y21650
X41644Y21650
T05
X26644Y1150
X27644Y1150
X28644Y1150
X29644Y1150
X30644Y1150
X31644Y1150
X32644Y1150
X33644Y1150
X34644Y1150
X35644Y1150
X36644Y1150
X37644Y1150
X38644Y1150
X39644Y1150
X40644Y1150
X40644Y7150
X39644Y7150
X38644Y7150
X37644Y7150
X36644Y7150
X35644Y7150
X34644Y7150
X33644Y7150
X32644Y7150
X31644Y7150
X30644Y7150
X29644Y7150
X28644Y7150
X27644Y7150
X26644Y7150
T06
X11644Y17650
X12644Y17650
X23644Y17650
X24644Y17650
X35144Y17650
X36144Y17650
T07
X11160Y10697
X12144Y10697
X13128Y10697
X15614Y6911
X15614Y5139
X18173Y5139
X18614Y3911
X18614Y2139
X21173Y2139
X21173Y3911
X21614Y5139
X21614Y6911
X21173Y8139
X21173Y9911
X23160Y10697
X24144Y10697
X25128Y10697
X24173Y6911
X24173Y5139
X18173Y6911
X18614Y8139
X18614Y9911
X34660Y10697
X35644Y10697
X36628Y10697
T08
X10144Y7650
X10144Y9400
X14769Y22525
X14769Y19525
X15894Y10900
X15894Y8900
X30144Y28400
X30144Y29400
X30144Y30400
X30144Y31400
X30144Y32400
X30144Y33400
X30144Y34400
X30144Y35400
T09
X6844Y6550
X6844Y5550
X6844Y2350
X6844Y1350
X14144Y1350
X14144Y2350
X14144Y5550
X14144Y6550
T10
X4894Y1650
X4894Y4150
T11
X5219Y11424
X5219Y14376
X5219Y19549
X5219Y22501
T12
X7778Y12900
X10097Y13650
X14191Y13650
X22097Y13650
X26191Y13650
X33597Y13650
X37691Y13650
X7778Y21025
T13
X5219Y21025
X8368Y18938
X5219Y12900
X8368Y10813
T14
X23344Y1900
M30
